<?xml version="1.0" encoding="UTF-8"?>
<!DOCTYPE svg PUBLIC "-//W3C//DTD SVG 1.1//EN" "http://www.w3.org/Graphics/SVG/1.1/DTD/svg11.dtd">
<!-- Creator: CorelDRAW 2020 (64-Bit) -->
<svg xmlns="http://www.w3.org/2000/svg" xml:space="preserve" width="21cm" height="29.7cm" version="1.1" style="shape-rendering:geometricPrecision; text-rendering:geometricPrecision; image-rendering:optimizeQuality; fill-rule:evenodd; clip-rule:evenodd"
viewBox="0 0 21000 29700"
 xmlns:xlink="http://www.w3.org/1999/xlink"
 xmlns:xodm="http://www.corel.com/coreldraw/odm/2003">
 <defs>
  <style type="text/css">
   <![CDATA[
    .fil0 {fill:#FEFEFE}
   ]]>
  </style>
 </defs>
 <g id="Слой_x0020_1">
  <metadata id="CorelCorpID_0Corel-Layer"/>
  <g id="Page-1">
   <g id="logo">
    <path id="Shape" class="fil0" d="M9355.96 15056.38c109.32,0 197.93,-92.4 197.93,-206.38 0,-113.98 -88.61,-206.37 -197.93,-206.37 -109.31,0 -197.93,92.39 -197.93,206.37 0,113.98 88.62,206.38 197.93,206.38zm0 190.5c-223,0 -403.77,-177.69 -403.77,-396.88 0,-219.19 180.77,-396.88 403.77,-396.88 223,0 403.78,177.69 403.78,396.88 0,219.19 -180.78,396.88 -403.78,396.88zm989.92 -555.63c15.86,39.69 102.3,254.25 118.86,293.93 11.49,27.53 31.54,31.6 39.2,31.5 22.5,0.05 39.68,-11.59 39.72,-39.68l-0.12 -492.12 197.92 0 0 484.18c1.38,168.09 -121.91,253.49 -221.67,254 -98.08,0.5 -191.76,-38.9 -260.94,-214.31 -13.98,-34.27 -87.35,-223.19 -111.39,-277.37 -19.57,-44.1 -34.97,-47.85 -50.8,-48.06 -15.82,-0.21 -36.07,11.89 -36.06,39.64l0 492.16 -197.33 0.01 -0.59 -484.19c-1.4,-167.42 119.57,-253.49 221.67,-254 97.1,-0.5 191.43,38.9 261.53,214.31zm751.87 523.88l-205.85 0 0 -730.26 205.85 0 0 730.26zm280.68 -365.13c-89.3,-74.99 -146.09,-187.61 -146.09,-313.53 0,-1.32 0,-2.65 0.02,-3.97l-0.02 0 0 -47.63 197.93 0 0 47.63 0.03 0c-0.02,1.32 -0.03,2.64 -0.03,3.97 0,120.55 93.93,218.28 209.81,218.28 115.87,0 209.8,-97.73 209.8,-218.28 0,-1.33 -0.01,-2.65 -0.03,-3.97l0.03 0 0 -47.63 197.93 0 0 47.63 -0.02 0c0.02,1.32 0.02,2.65 0.02,3.97 0,125.92 -56.79,238.54 -146.09,313.53 88.36,74.2 144.89,185.24 146.07,309.55l0.02 0.01 0 55.57 -197.93 0 0 -55.57 -0.03 0c-2.03,-118.72 -95.17,-214.31 -209.77,-214.31 -114.6,0 -207.74,95.59 -209.78,214.31l-0.03 0 0 55.57 -197.93 0 0 -55.57 0.02 0c1.18,-124.31 57.71,-235.36 146.07,-309.56z"/>
   </g>
  </g>
 </g>
</svg>
